<svg width="100" height="100" viewBox="0 0 100 100" fill="none" xmlns="http://www.w3.org/2000/svg">
<g filter="url(#filter0_d_30_51)">
<path d="M47.0737 11.9547C47.7782 8.83606 52.2218 8.83606 52.9263 11.9547L56.5187 27.8587C56.9753 29.8799 59.2948 30.8407 61.0468 29.7343L74.8329 21.0287C77.5362 19.3216 80.6784 22.4638 78.9713 25.1671L70.2657 38.9532C69.1593 40.7052 70.1201 43.0247 72.1413 43.4813L88.0453 47.0737C91.1639 47.7782 91.1639 52.2218 88.0453 52.9263L72.1413 56.5187C70.1201 56.9753 69.1593 59.2948 70.2657 61.0468L78.9713 74.8329C80.6784 77.5362 77.5362 80.6784 74.8329 78.9713L61.0468 70.2657C59.2948 69.1593 56.9753 70.1201 56.5187 72.1413L52.9263 88.0453C52.2218 91.1639 47.7782 91.1639 47.0737 88.0453L43.4813 72.1413C43.0247 70.1201 40.7052 69.1593 38.9532 70.2657L25.1671 78.9713C22.4638 80.6784 19.3216 77.5362 21.0287 74.8329L29.7343 61.0468C30.8407 59.2948 29.8799 56.9753 27.8587 56.5187L11.9547 52.9263C8.83606 52.2218 8.83606 47.7782 11.9547 47.0737L27.8587 43.4813C29.8799 43.0247 30.8407 40.7052 29.7343 38.9532L21.0287 25.1671C19.3216 22.4638 22.4638 19.3216 25.1671 21.0287L38.9532 29.7343C40.7052 30.8407 43.0247 29.8799 43.4813 27.8587L47.0737 11.9547Z" fill="#DC2F02"/>
</g>
<g filter="url(#filter1_d_30_51)">
<circle cx="50" cy="50" r="29" fill="#FB8500"/>
</g>
<g filter="url(#filter2_d_30_51)">
<circle cx="50" cy="50" r="24" fill="#FFB703"/>
</g>
<path d="M50.5 37C48.7272 37 46.9717 37.3492 45.3338 38.0276C43.6959 38.7061 42.2076 39.7005 40.9541 40.9541C39.7005 42.2076 38.7061 43.6959 38.0276 45.3338C37.3492 46.9717 37 48.7272 37 50.5C37 52.2728 37.3492 54.0283 38.0276 55.6662C38.7061 57.3041 39.7005 58.7924 40.9541 60.0459C42.2076 61.2995 43.6959 62.2939 45.3338 62.9724C46.9717 63.6508 48.7272 64 50.5 64L50.5 50.5L50.5 37Z" fill="#E85D04"/>
<path d="M50.5 38C48.8585 38 47.233 38.3233 45.7165 38.9515C44.1999 39.5797 42.8219 40.5004 41.6612 41.6612C40.5004 42.8219 39.5797 44.1999 38.9515 45.7165C38.3233 47.233 38 48.8585 38 50.5C38 52.1415 38.3233 53.767 38.9515 55.2835C39.5797 56.8001 40.5004 58.1781 41.6612 59.3388C42.8219 60.4996 44.1999 61.4203 45.7165 62.0485C47.233 62.6767 48.8585 63 50.5 63L50.5 50.5L50.5 38Z" fill="#D00000"/>
<g filter="url(#filter3_d_30_51)">
<circle cx="50.5" cy="50.5" r="4.5" fill="#E85D04"/>
</g>
<defs>
<filter id="filter0_d_30_51" x="6.61572" y="6.61572" width="86.7686" height="86.7686" filterUnits="userSpaceOnUse" color-interpolation-filters="sRGB">
<feFlood flood-opacity="0" result="BackgroundImageFix"/>
<feColorMatrix in="SourceAlpha" type="matrix" values="0 0 0 0 0 0 0 0 0 0 0 0 0 0 0 0 0 0 127 0" result="hardAlpha"/>
<feOffset/>
<feGaussianBlur stdDeviation="1.5"/>
<feComposite in2="hardAlpha" operator="out"/>
<feColorMatrix type="matrix" values="0 0 0 0 1 0 0 0 0 0.729412 0 0 0 0 0.0313726 0 0 0 0.7 0"/>
<feBlend mode="normal" in2="BackgroundImageFix" result="effect1_dropShadow_30_51"/>
<feBlend mode="normal" in="SourceGraphic" in2="effect1_dropShadow_30_51" result="shape"/>
</filter>
<filter id="filter1_d_30_51" x="16" y="16" width="68" height="68" filterUnits="userSpaceOnUse" color-interpolation-filters="sRGB">
<feFlood flood-opacity="0" result="BackgroundImageFix"/>
<feColorMatrix in="SourceAlpha" type="matrix" values="0 0 0 0 0 0 0 0 0 0 0 0 0 0 0 0 0 0 127 0" result="hardAlpha"/>
<feMorphology radius="1" operator="dilate" in="SourceAlpha" result="effect1_dropShadow_30_51"/>
<feOffset/>
<feGaussianBlur stdDeviation="2"/>
<feComposite in2="hardAlpha" operator="out"/>
<feColorMatrix type="matrix" values="0 0 0 0 1 0 0 0 0 0.729412 0 0 0 0 0.0313726 0 0 0 0.25 0"/>
<feBlend mode="normal" in2="BackgroundImageFix" result="effect1_dropShadow_30_51"/>
<feBlend mode="normal" in="SourceGraphic" in2="effect1_dropShadow_30_51" result="shape"/>
</filter>
<filter id="filter2_d_30_51" x="23" y="23" width="54" height="54" filterUnits="userSpaceOnUse" color-interpolation-filters="sRGB">
<feFlood flood-opacity="0" result="BackgroundImageFix"/>
<feColorMatrix in="SourceAlpha" type="matrix" values="0 0 0 0 0 0 0 0 0 0 0 0 0 0 0 0 0 0 127 0" result="hardAlpha"/>
<feMorphology radius="1" operator="dilate" in="SourceAlpha" result="effect1_dropShadow_30_51"/>
<feOffset/>
<feGaussianBlur stdDeviation="1"/>
<feComposite in2="hardAlpha" operator="out"/>
<feColorMatrix type="matrix" values="0 0 0 0 0.615686 0 0 0 0 0.00784314 0 0 0 0 0.0313726 0 0 0 0.89 0"/>
<feBlend mode="normal" in2="BackgroundImageFix" result="effect1_dropShadow_30_51"/>
<feBlend mode="normal" in="SourceGraphic" in2="effect1_dropShadow_30_51" result="shape"/>
</filter>
<filter id="filter3_d_30_51" x="36" y="36" width="29" height="29" filterUnits="userSpaceOnUse" color-interpolation-filters="sRGB">
<feFlood flood-opacity="0" result="BackgroundImageFix"/>
<feColorMatrix in="SourceAlpha" type="matrix" values="0 0 0 0 0 0 0 0 0 0 0 0 0 0 0 0 0 0 127 0" result="hardAlpha"/>
<feMorphology radius="3" operator="dilate" in="SourceAlpha" result="effect1_dropShadow_30_51"/>
<feOffset/>
<feGaussianBlur stdDeviation="3.5"/>
<feComposite in2="hardAlpha" operator="out"/>
<feColorMatrix type="matrix" values="0 0 0 0 0.698039 0 0 0 0 0.760784 0 0 0 0 0.788235 0 0 0 0.25 0"/>
<feBlend mode="normal" in2="BackgroundImageFix" result="effect1_dropShadow_30_51"/>
<feBlend mode="normal" in="SourceGraphic" in2="effect1_dropShadow_30_51" result="shape"/>
</filter>
</defs>
</svg>
