<svg width="30" height="30" viewBox="0 0 50 50" fill="none" xmlns="http://www.w3.org/2000/svg">
<ellipse cx="24.5" cy="33" rx="12.5" ry="12" fill="#E63946"/>
<path d="M27 6V31H21V6C21 4.34315 22.3431 3 24 3C25.6569 3 27 4.34315 27 6Z" fill="#F1FAEE" stroke="#E63946" stroke-width="2"/>
<path d="M33.625 33C33.625 37.6663 29.5966 41.5 24.5625 41.5C19.5284 41.5 15.5 37.6663 15.5 33C15.5 28.3337 19.5284 24.5 24.5625 24.5C29.5966 24.5 33.625 28.3337 33.625 33Z" fill="#E63946" stroke="#F1FAEE"/>
<path d="M12.7717 7.22826C12.3455 6.80203 11.6545 6.80203 11.2283 7.22826L4.28256 14.1739C3.85634 14.6002 3.85634 15.2912 4.28256 15.7174C4.70879 16.1437 5.39983 16.1437 5.82605 15.7174L12 9.54349L18.1739 15.7174C18.6002 16.1437 19.2912 16.1437 19.7174 15.7174C20.1437 15.2912 20.1437 14.6002 19.7174 14.1739L12.7717 7.22826ZM13.0914 26L13.0914 8H10.9086L10.9086 26H13.0914Z" fill="#E63946"/>
<path d="M23 8C23 7.44772 23.4477 7 24 7H28C28.5523 7 29 7.44772 29 8V8C29 8.55228 28.5523 9 28 9H24C23.4477 9 23 8.55228 23 8V8Z" fill="#E63946"/>
<path d="M23 13C23 12.4477 23.4477 12 24 12H28C28.5523 12 29 12.4477 29 13V13C29 13.5523 28.5523 14 28 14H24C23.4477 14 23 13.5523 23 13V13Z" fill="#E63946"/>
<path d="M23 18C23 17.4477 23.4477 17 24 17H28C28.5523 17 29 17.4477 29 18V18C29 18.5523 28.5523 19 28 19H24C23.4477 19 23 18.5523 23 18V18Z" fill="#E63946"/>
</svg>
