<svg width="20" height="10" viewBox="0 0 36 53" fill="none" xmlns="http://www.w3.org/2000/svg">
<path d="M28 15C28 20.5228 23.5228 25 18 25C12.4772 25 8 20.5228 8 15C8 9.47715 12.4772 5 18 5C23.5228 5 28 9.47715 28 15Z" stroke="#3A0CA3" stroke-width="10"/>
<path d="M18 50.5L12.5 38.5L6 24L30 24L23.5 38.5L18 50.5Z" fill="#3A0CA3"/>
<path d="M2 49.6038C2.5447 49.5929 3.0197 49.2659 3.5491 49.1525C3.78092 49.1028 3.99043 49 4.22607 49C4.69423 49 5.15718 49.0327 5.61965 49.1098C6.07981 49.1865 6.4672 49.3181 6.88516 49.5062C7.40953 49.7422 8.0972 49.7136 8.66297 49.7136C9.13407 49.7136 9.60454 49.837 10.0718 49.9057C10.4942 49.9678 10.9654 49.914 11.3739 50.0307C11.6084 50.0977 11.8382 50.1694 12.0753 50.2381C12.9312 50.4862 13.6247 51.05 14.5453 51.1376C15.5024 51.2288 16.656 50.9967 17.5032 50.5674C17.9827 50.3245 18.3506 50.1343 18.8846 50.0947C19.2037 50.0711 19.5624 50.084 19.8757 50.0307C20.2607 49.9652 20.6275 49.8233 21.0222 49.8233C21.3435 49.8233 21.6647 49.8233 21.9859 49.8233C22.3408 49.8233 22.645 49.6989 22.9922 49.6465C23.3416 49.5937 23.6878 49.6038 24.0412 49.6038C24.1591 49.6038 24.3289 49.5717 24.3705 49.7197C24.4685 50.0682 24.3976 50.4686 24.4742 50.8296C24.5699 51.2809 24.5949 51.3054 25.0505 51.3054C25.376 51.3054 25.7751 51.3296 26.066 51.159C26.6056 50.8424 27.1622 50.2505 27.798 50.1527C28.5337 50.0395 29.2963 50.1673 30.0241 49.988C30.7442 49.8106 31.4414 49.7685 32.1831 49.7685C32.4363 49.7685 33.8488 49.9074 33.9457 49.7136" stroke="#3A0CA3" stroke-width="3" stroke-linecap="round"/>
</svg>
