<svg width="30" height="30" viewBox="0 0 50 50" fill="none" xmlns="http://www.w3.org/2000/svg">
<ellipse cx="24.5" cy="33" rx="12.5" ry="12" fill="#4CC9F0"/>
<path d="M27 6V31H21V6C21 4.34315 22.3431 3 24 3C25.6569 3 27 4.34315 27 6Z" fill="#F1FAEE" stroke="#4CC9F0" stroke-width="2"/>
<path d="M33.625 33C33.625 37.6663 29.5966 41.5 24.5625 41.5C19.5284 41.5 15.5 37.6663 15.5 33C15.5 28.3337 19.5284 24.5 24.5625 24.5C29.5966 24.5 33.625 28.3337 33.625 33Z" fill="#4CC9F0" stroke="#F1FAEE"/>
<path d="M11.2283 26.7717C11.6545 27.198 12.3455 27.198 12.7717 26.7717L19.7174 19.826C20.1437 19.3998 20.1437 18.7088 19.7174 18.2826C19.2912 17.8563 18.6002 17.8563 18.1739 18.2826L12 24.4565L5.82605 18.2826C5.39983 17.8563 4.70879 17.8563 4.28256 18.2826C3.85634 18.7088 3.85634 19.3998 4.28256 19.826L11.2283 26.7717ZM10.9086 8L10.9086 26H13.0914L13.0914 8H10.9086Z" fill="#4CC9F0"/>
<path d="M23 8C23 7.44772 23.4477 7 24 7H28C28.5523 7 29 7.44772 29 8V8C29 8.55228 28.5523 9 28 9H24C23.4477 9 23 8.55228 23 8V8Z" fill="#4CC9F0"/>
<path d="M23 13C23 12.4477 23.4477 12 24 12H28C28.5523 12 29 12.4477 29 13V13C29 13.5523 28.5523 14 28 14H24C23.4477 14 23 13.5523 23 13V13Z" fill="#4CC9F0"/>
<path d="M23 18C23 17.4477 23.4477 17 24 17H28C28.5523 17 29 17.4477 29 18V18C29 18.5523 28.5523 19 28 19H24C23.4477 19 23 18.5523 23 18V18Z" fill="#4CC9F0"/>
</svg>
